<svg width="253" height="192" viewBox="0 0 253 192" fill="none" xmlns="http://www.w3.org/2000/svg">
<path d="M50.1442 119.975C39.8019 108.914 32.9828 100.752 31.3754 85.2763C30.8051 79.7862 28.7937 74.6664 28.4081 68.8752C28.132 64.7273 28.5167 54.7804 30.3696 51.2601" stroke="#FF0000" stroke-width="3" stroke-linecap="round"/>
<path d="M30.3697 51.2601C15.4799 52.8067 4.1072 35.6637 14.1904 23.243C22.9794 12.4167 36.558 21.5604 43.2948 29.698" stroke="#FF0000" stroke-width="3" stroke-linecap="round"/>
<path d="M43.2948 29.698C49.9011 26.3631 56.7647 23.4493 63.5207 20.2956C72.9245 15.9059 82.9704 15.29 92.4316 10.6932C100.513 6.76657 109.457 5.13367 118.436 4.20101C120.913 3.94368 123.69 4.07567 125.872 2.79673C130.595 0.028639 124.309 5.389 123.28 6.22534C119.456 9.33383 101.432 16.2388 102.13 22.955C102.165 23.2903 135.949 15.4624 115.892 25.6678C112.397 27.4459 107.461 30.9445 106.003 34.5581C105.037 36.9538 113.922 34.9994 116.482 34.7334C127.906 33.5469 106.284 49.3835 111.554 54.2012C118.015 60.1086 124.672 70.9967 125.598 79.9127C126.456 88.1785 126.571 100.605 119.508 106.452" stroke="#FF0000" stroke-width="3" stroke-linecap="round"/>
<path d="M49.0238 121.355C40.8525 122.204 33.9373 123.588 26.1469 126.188C22.9452 127.257 19.2543 127.435 16.2775 129.179C12.6172 131.325 10.2654 134.662 6.36927 136.527C-1.00734 140.059 6.57761 138.612 10.8632 137.886C16.9266 136.858 22.618 135.471 28.8691 134.822C30.0762 134.697 37.4868 133.299 37.6234 134.615C37.9427 137.688 28.6731 143.603 26.979 145.69C26.1871 146.665 17.6264 160.703 19.2534 160.534C20.8644 160.366 23.0351 157.08 24.2816 156.22C30.096 152.209 36.8876 149.932 42.9073 146.282C46.1229 144.332 47.8863 141.037 50.8707 139.136C54.4381 136.864 50.2812 143.902 49.6564 145.019C47.4236 149.014 43.4236 151.78 41.2491 156.002C38.2575 161.811 47.0788 154.296 48.9652 153.235C54.7507 149.981 60.1734 145.783 63.604 140.06" stroke="#FF0000" stroke-width="3" stroke-linecap="round"/>
<path d="M121.148 110.072C134.188 98.3485 149.544 107.963 163.128 112.733C163.52 112.871 167.217 112.928 166.028 113.625C162.548 115.665 156.882 115.856 152.997 116.593C148.598 117.428 140.391 119.73 135.911 118.368C130.077 116.595 122.692 118.758 116.778 119.372C116.077 119.445 105.584 119.204 108.683 121.196C110.773 122.539 114.733 121.869 117.168 123.123C120.827 125.008 124.139 127.573 127.92 129.308C131.034 130.737 134.363 131.534 137.397 132.676C139.388 133.426 132.34 132.921 131.117 133.048C124.985 133.685 111.32 134.668 124.265 140.078C128.35 141.785 121.244 142.829 119.246 143.127C115.127 143.741 111.309 145.215 107.151 145.647" stroke="#FF0000" stroke-width="3" stroke-linecap="round"/>
<path d="M25.0606 36.6468C26.1745 40.0127 26.9527 42.7621 29.7204 45.0089" stroke="#FF0000" stroke-width="3" stroke-linecap="round"/>
<path d="M23.9402 38.0269C25.6753 39.9568 27.2564 42.8797 29.5905 43.7587" stroke="#FF0000" stroke-width="3" stroke-linecap="round"/>
<path d="M86.694 94.6952C80.7905 95.3084 73.1974 95.0799 67.392 96.7703C63.7805 97.822 65.1336 106.12 65.4234 108.91C66.1322 115.734 75.5701 123.653 82.0495 122.98C86.9013 122.476 90.4908 120.8 94.8406 119.053C97.2376 118.091 93.1037 109.602 94.9988 107.734C96.5776 106.177 94.9811 98.7518 93.5838 97.49C89.6505 93.9381 88.6056 94.4967 82.9433 95.0848" stroke="#FF0000" stroke-width="3" stroke-linecap="round"/>
<path d="M58.7508 81.1692C56.3712 76.5484 55.4018 73.2596 54.8868 68.3014C54.5242 64.811 55.2025 61.8794 57.8871 66.0942C60.8852 70.8012 62.3487 78.1079 66.1331 81.9469C67.8977 83.7369 66.2339 86.158 65.1201 82.333C64.0679 78.7194 62.639 74.9477 61.4581 71.41C60.3143 67.9834 59.4045 66.3113 56.3798 64.4253C52.8379 62.2168 54.6611 66.1285 54.9517 68.9265C55.5859 75.0325 62.2292 80.3058 65.2436 85.5497C67.3153 89.1535 65.2945 88.501 64.1368 85.0328C63.3427 82.6536 61.1667 80.0953 60.9266 77.7839C60.6163 74.7962 59.2887 72.6335 58.8323 69.7872C58.6375 68.5721 56.725 61.666 57.1925 66.1663C57.8574 72.5679 59.5244 78.8344 61.6409 84.6602" stroke="#FF0000" stroke-width="3" stroke-linecap="round"/>
<path d="M91.387 79.043C86.4283 74.8894 84.7785 73.0608 83.8372 67.1899C83.76 66.7087 80.405 59.262 82.0134 59.0949C83.1651 58.9753 88.6384 66.8067 89.2747 68.1697C90.944 71.7458 90.7592 75.2081 91.387 79.043ZM91.387 79.043C91.96 82.5435 89.3226 75.4614 88.616 73.9951C87.3766 71.423 87.2798 68.0571 85.9299 65.7088C83.1955 60.952 88.0199 69.9826 88.1073 71.8013C88.2207 74.1608 87.5912 78.7696 86.5159 80.8127" stroke="#FF0000" stroke-width="3" stroke-linecap="round"/>
<path d="M77.2268 137.382C83.3525 135.234 92.38 130.497 95.0895 124.153C95.575 123.016 98.4997 111.495 99.7462 113.559C102.048 117.37 99.5127 123.396 101.73 127.254C103.94 131.097 104.725 137.974 102.39 141.718C99.0657 147.05 96.7195 151.785 89.4726 152.538C84.2042 153.085 79.4173 157.546 75.5946 152.084C73.2584 148.746 72.4105 144.356 70.6102 140.596C69.7147 138.726 66.9779 136.445 70.9107 137.406C73.4298 138.021 75.9302 137.516 78.4771 137.252" stroke="#FF0000" stroke-width="3" stroke-linecap="round"/>
<path d="M78.7368 139.752C80.1449 144.366 80.8407 148.307 83.7861 151.865" stroke="#FF0000" stroke-width="3" stroke-linecap="round"/>
<path d="M87.6183 140.093C88.0006 140.799 95.3342 153.546 94.7785 148.196" stroke="#FF0000" stroke-width="3" stroke-linecap="round"/>
<path d="M92.3595 137.073C94.0957 139.005 95.4077 140.813 96.7596 142.935" stroke="#FF0000" stroke-width="3" stroke-linecap="round"/>
<path d="M80.7662 147.124C94.4973 145.358 102.159 134.088 100.803 121.032" stroke="#FF0000" stroke-width="3" stroke-linecap="round"/>
<path d="M60.4211 158.083C64.2999 162.231 67.9051 165.559 70.2945 170.678C71.3758 172.994 72.8911 180.793 73.6211 175.668" stroke="#FF0000" stroke-width="3" stroke-linecap="round"/>
<path d="M110.301 151.638C109.558 158.209 108.581 161.341 110.604 167.403C111.3 169.487 112.428 172.116 112.638 174.143" stroke="#FF0000" stroke-width="3" stroke-linecap="round"/>
<path d="M116.908 178.754C128.731 179.445 139.272 179.998 150.982 176.268C155.324 174.885 162.5 172.355 164.324 167.511C165.292 164.939 165.925 163.372 168.123 161.499C178.685 152.497 181.935 135.336 193.759 127.805" stroke="#FF0000" stroke-width="3" stroke-linecap="round"/>
<path d="M193.629 126.555C192.079 121.87 187.638 117.546 187.142 112.766C186.869 110.141 185.843 106.273 184.35 104.14C183.756 103.29 182.608 98.4713 183.548 99.7998C184.639 101.341 186.476 102.318 187.746 103.717C188.032 104.031 191.185 108.569 191.447 108.247C192.533 106.908 191.148 101.077 190.212 99.7395C188.309 97.0211 190.349 94.9728 190.058 92.1731C189.64 88.1523 193.912 93.5478 195.077 94.5303C198.492 97.4115 197.108 100.161 199.071 103.242C200.331 105.221 201.901 97.0007 202.392 96.0171C204.509 91.7784 205.075 92.1592 209.355 90.7304C215.702 88.612 207.475 102.985 206.525 104.715C205.907 105.842 202.271 109.128 202.635 108.489C204.466 105.266 212.042 101.895 215.671 101.518C219.905 101.078 219.946 101.333 216.935 104.897C215 107.188 213.157 109.709 211.055 111.827C207.791 115.116 220.295 111.11 224.913 110.738C230.481 110.29 237.418 109.128 243.033 110.12C245.741 110.598 238.623 116.424 238.125 116.948C233.523 121.804 226.187 122.488 221.347 128.45C217.147 133.624 210.573 134.905 204.045 135.583C197.037 136.311 195.642 140.162 193.484 146.789C189.697 158.423 181.287 170.806 171.159 177.893C166.109 181.428 160.724 186.101 154.402 187.567C147.716 189.118 142.331 188.751 135.71 189.438" stroke="#FF0000" stroke-width="3" stroke-linecap="round"/>
</svg>
